HIERARCHY
ROOT Hips
{
  OFFSET 2.26061 22.2878 23.7974
  CHANNELS 6 Xposition Yposition Zposition Zrotation Xrotation Yrotation
  JOINT LeftUpLeg
  {
    OFFSET 8.64259 1.95398 -2.38835
    CHANNELS 3 Zrotation Xrotation Yrotation
    JOINT LeftLeg
    {
      OFFSET 43.7702 0 0
      CHANNELS 3 Zrotation Xrotation Yrotation
      JOINT LeftFoot
      {
        OFFSET 40.6238 0 0
        CHANNELS 3 Zrotation Xrotation Yrotation
        JOINT LeftToeBase
        {
          OFFSET 12.7242 0 0
          CHANNELS 3 Zrotation Xrotation Yrotation
          End Site
          {
            OFFSET 0 0 0
          }
        }
      }
    }
  }
  JOINT RightUpLeg
  {
    OFFSET -8.2249 1.95398 -2.59336
    CHANNELS 3 Zrotation Xrotation Yrotation
    JOINT RightLeg
    {
      OFFSET 43.5653 0 0
      CHANNELS 3 Zrotation Xrotation Yrotation
      JOINT RightFoot
      {
        OFFSET 40.6238 0 0
        CHANNELS 3 Zrotation Xrotation Yrotation
        JOINT RightToeBase
        {
          OFFSET 12.7242 0 0
          CHANNELS 3 Zrotation Xrotation Yrotation
          End Site
          {
            OFFSET 0 0 0
          }
        }
      }
    }
  }
  JOINT Spine
  {
    OFFSET 0.165834 0.87714 6.61349
    CHANNELS 3 Zrotation Xrotation Yrotation
    JOINT Spine1
    {
      OFFSET 7.38963 1.71661e-005 0
      CHANNELS 3 Zrotation Xrotation Yrotation
      JOINT Spine2
      {
        OFFSET 11.9445 1.14441e-005 0
        CHANNELS 3 Zrotation Xrotation Yrotation
        JOINT Spine3
        {
          OFFSET 14.7254 4.19617e-005 0
          CHANNELS 3 Zrotation Xrotation Yrotation
          JOINT Spine4
          {
            OFFSET 10.9679 0 0
            CHANNELS 3 Zrotation Xrotation Yrotation
            JOINT RightShoulder
            {
              OFFSET 2.46616 -1.6653 3.69651
              CHANNELS 3 Zrotation Xrotation Yrotation
              JOINT RightArm
              {
                OFFSET 13.0012 0 0
                CHANNELS 3 Zrotation Xrotation Yrotation
                JOINT RightForeArm
                {
                  OFFSET 28.7848 1.52588e-005 0
                  CHANNELS 3 Zrotation Xrotation Yrotation
                  JOINT RightHand
                  {
                    OFFSET 26.5688 1.52588e-005 0
                    CHANNELS 3 Zrotation Xrotation Yrotation
                    End Site
                    {
                      OFFSET 0 0 0
                    }
                  }
                }
              }
            }
            JOINT LeftShoulder
            {
              OFFSET 2.38034 -1.29275 -3.7523
              CHANNELS 3 Zrotation Xrotation Yrotation
              JOINT LeftArm
              {
                OFFSET 16.3182 6.10351e-005 0
                CHANNELS 3 Zrotation Xrotation Yrotation
                JOINT LeftForeArm
                {
                  OFFSET 27.0901 0 0
                  CHANNELS 3 Zrotation Xrotation Yrotation
                  JOINT LeftHand
                  {
                    OFFSET 24.5451 1.52588e-005 0
                    CHANNELS 3 Zrotation Xrotation Yrotation
                    End Site
                    {
                      OFFSET 0 0 0
                    }
                  }
                }
              }
            }
            JOINT Neck
            {
              OFFSET 5.0226 -0.0266342 0
              CHANNELS 3 Zrotation Xrotation Yrotation
              JOINT Head
              {
                OFFSET 6.69363 2.86102e-005 0
                CHANNELS 3 Zrotation Xrotation Yrotation
                End Site
                {
                  OFFSET 0 0 0
                }
              }
            }
          }
        }
      }
    }
  }
}
MOTION
Frames:	6
Frame Time:	0.0416667
-272.523 91.2142 -279.245 111.659 -60.8693 102.4 -161.323 4.55299 95.4543 -73.0431 -30.317 -5.32492 8.7726 -24.3239 -30.6121 89.0589 -7.37533 -101.801 -176.77 2.13005 100.758 -56.971 -16.7741 -32.3819 3.70906 20.0084 29.6153 100.362 6.49123 4.03129 1.39495 10.1149 -89.6693 6.63682 2.92725 0.539518 -5.03089 2.94816 0.410039 -27.5875 2.6297 1.39488 -7.57486 2.62969 1.39487 95.6273 -51.9815 -91.9013 14.906 -2.95028 -6.60955 17.8739 -24.7211 -44.23 -30.0214 -5.12809 14.5838 -96.5852 -59.6587 71.8017 -23.7954 18.022 18.9898 18.9042 -0.0181016 -82.2084 35.6905 2.76607 3.89852 29.4623 4.85613 10.0273 -10.4925 1.05108 -1.87366 
-272.352 91.1941 -278.786 109.73 -60.4816 99.6668 -159.221 14.1589 90.5956 -77.5629 3.04415 -2.5081 45.791 -8.5528 -15.091 72.0762 20.7423 -28.8685 -176.503 5.1458 96.8518 -59.3164 -18.9934 -26.1196 5.96812 17.2799 24.6576 101.241 4.24324 0.337019 1.8771 9.86107 -89.4929 7.13723 3.96688 0.822743 -4.52778 3.99923 0.647079 -27.1016 3.53601 1.97822 -7.08896 3.53603 1.97823 94.3611 -48.8391 -94.2865 22.6033 2.81664 5.71376 1.12295 -23.7655 -80.2123 -20.3531 -7.96376 39.5402 -101.791 -54.4548 63.1197 -28.1558 15.1245 28.7313 18.429 -0.447275 -83.5068 36.9087 3.02928 4.34506 15.8081 0.697406 6.20748 1.04003 -0.811358 0.729085 
-270.654 91.7721 -277.193 103.851 -59.9289 93.9529 -160.528 25.2981 87.9006 -72.0536 16.7367 -3.66291 49.9133 -7.28514 0.974624 40.8431 10.1472 7.57826 -178.103 6.62274 93.8795 -58.5007 -19.4106 -23.9121 10.9224 16.403 21.4985 94.5626 4.62205 2.0337 1.97237 9.49471 -89.3688 7.866 4.21278 1.01848 -3.79838 4.25349 0.831768 -26.3752 3.71173 2.23896 -6.36249 3.71173 2.23895 94.7564 -48.1109 -93.7787 23.6366 3.35362 2.92309 -2.15943 -19.9244 -93.0239 -13.8079 -7.67188 57.0095 -99.0468 -53.8179 66.6967 -30.5738 15.6566 33.7155 15.8614 -1.07716 -84.4368 37.9861 3.25753 4.71391 14.4412 0.414851 5.85032 1.5869 -0.967287 0.488757 
-267.831 92.8025 -274.548 92.662 -58.3451 84.32 -163.845 34.96 87.0147 -59.8124 13.3052 -4.09081 45.6043 -9.6362 -7.34841 38.0328 7.85321 16.7896 -179.96 8.69378 91.1185 -55.3171 -21.3997 -21.1548 17.1211 15.6865 18.7365 86.1471 2.84324 -0.4991 1.9919 8.79851 -89.2522 9.2569 4.30774 1.16683 -2.40725 4.35491 0.975771 -24.9844 3.75773 2.40899 -4.97172 3.75773 2.40899 94.3894 -47.5022 -94.4572 24.1397 4.11201 3.1437 -4.83286 -14.5955 -103.858 -8.32552 -5.91875 72.499 -97.1653 -52.4231 68.9031 -33.1037 14.9761 38.1086 12.7593 -1.72822 -84.9608 37.9927 2.61122 2.97664 12.9027 -0.0214487 5.65562 1.7712 -1.28129 0.0503821 
-263.303 94.3616 -270.358 80.6353 -54.2893 75.3734 -168.323 41.1073 87.0166 -42.2947 13.5364 -3.93501 41.9763 -11.6676 -7.54876 36.9461 6.69735 16.7667 177.978 9.26634 88.3273 -47.3134 -22.0901 -15.6771 23.4038 13.2312 14.8502 71.3404 1.62878 -1.74172 1.80291 7.93042 -89.2662 10.9976 3.92909 1.08481 -0.667741 3.97302 0.910582 -23.2375 3.42129 2.21659 -3.22488 3.42128 2.2166 93.9135 -46.5105 -95.3834 24.7048 3.92318 4.0657 -6.79321 -9.51392 -108.671 -4.80681 -3.95542 82.7832 -96.2487 -51.6534 69.9808 -35.5186 13.838 41.4589 13.1821 -1.92334 -85.8278 38.6638 3.19568 4.39591 11.1186 0.0589445 6.70323 1.78849 -1.42484 -1.66311 
-257.072 96.2224 -265.209 75.7671 -49.8652 74.7261 -174.55 40.8838 89.3259 -23.1409 17.5907 -1.53169 39.5776 -12.5669 -7.63908 34.5977 4.24508 16.2584 175.606 3.09896 87.3208 -33.6323 -19.7934 -9.09651 26.9588 9.62785 12.1009 54.6282 1.02123 -2.04951 1.61388 7.406 -89.5333 12.0571 3.42874 0.553067 0.390592 3.44975 0.401446 -22.1747 3.10387 1.55889 -2.16204 3.10387 1.55889 94.323 -46.056 -94.7984 24.8988 2.2125 5.14649 -8.10981 -6.59676 -108.921 -4.24484 -4.14661 89.1051 -96.0111 -50.1006 69.8509 -37.1884 11.743 43.8883 10.7374 -2.14076 -85.9468 37.7131 2.16852 1.83657 9.96083 -0.304775 6.1782 1.97157 -1.62564 -1.91376 
